# xmcd
#
# Track frame offsets: 
#        150
#        15961
#        32971
#        45239
#        66502
#        88586
#        104375
#        124757
#        142248
#        165284
#        176347
#        193520
#        212015
#        226912
#        238858
#        249822
#        266909
#        281539
#        298017
#        310511
#
# Disc length: 4360 seconds
#
# Revision: 2
# Processed by: cddbd v1.5.2PL0 Copyright (c) Steve Scherf et al.
# Submitted via: ExactAudioCopyFreeDBPlugin 1.0
#
DISCID=14110614
DTITLE=Bluesberry - Blues je třeba
DYEAR=2008
DGENRE=Blues
TTITLE0=A tak jdou roky bluesový
TTITLE1=Odešlas' ráno
TTITLE2=Ruzyňský blues (LP 1979)
TTITLE3=Splín
TTITLE4=Blues je třeba
TTITLE5=Reklama
TTITLE6=Blues osamělého cyklisty, jedoucího po nekvalitních komunikací
TTITLE6=ch 3. třídy v okolí Prahy 6 aneb MERIDA blues
TTITLE7=Uprostřed léta v poledne
TTITLE8=Nádraží (Love in Vain)
TTITLE9=V rytmu boogie woogie buší srdce mé
TTITLE10=V poslední chvíli
TTITLE11=Mám tu problém
TTITLE12=Bejvák
TTITLE13=Zázračná léčba slavného doktora P.I
TTITLE14=Pavlína
TTITLE15=Blues o Malostranské besedě
TTITLE16=Pekárna
TTITLE17=Blues je třeba i s Wabim (feat. Wabi Daněk)
TTITLE18=Na rohu
TTITLE19=Smajchlkabinet [Pouze z nouze]
EXTD=YEAR: 2010
EXTT0=
EXTT1=
EXTT2=
EXTT3=
EXTT4=
EXTT5=
EXTT6=
EXTT7=
EXTT8=
EXTT9=
EXTT10=
EXTT11=
EXTT12=
EXTT13=
EXTT14=
EXTT15=
EXTT16=
EXTT17=
EXTT18=
EXTT19=
PLAYORDER=
